#!OML:ASF H:\Terrain\Patient Classification 1\Walking\steve\steve.ASF
:FULLY-SPECIFIED
:DEGREES
93
root 9.59001 15.5919 -9.36783 4.18613 -1.80912 1.69233
lowerback 3.3731 0.165716 -0.0587277
upperback -2.16248 0.285729 1.7646
thorax -4.13117 0.170417 1.83448
lowerneck -9.97145 -0.736794 -2.41374
upperneck 10.6839 -0.710166 0.641114
head 4.85371 -0.405109 0.541433
rclavicle 1.73937e-015 8.74653e-015
rhumerus -80.8567 -38.1738 -8.09291
rradius 14.7466
rwrist 50.1039
rhand -21.149 -38.8363
rfingers 7.12502
rthumb 5.23045 -68.7517
lclavicle 1.73937e-015 8.74653e-015
lhumerus -16.5138 -14.6774 88.6106
lradius 64.6319
lwrist 26.32
lhand -28.9042 -20.2436
lfingers 7.12502
lthumb -2.25918 9.72414
rfemur -39.4373 2.9308 23.8595
rtibia 47.2046
rfoot -10.5846 8.06477
rtoes 6.16181
lfemur 2.73195 2.0927 -22.3508
ltibia 51.2875
lfoot 20.0636 10.9198
ltoes -4.1736
94
root 9.58647 15.6214 -9.11487 4.24076 -1.74235 1.34826
lowerback 3.16777 0.304568 0.32812
upperback -2.14232 0.493531 1.91351
thorax -3.99886 0.264672 1.75721
lowerneck -9.62231 -0.86353 -2.84712
upperneck 10.5831 -0.859079 0.903672
head 4.76972 -0.478885 0.683843
rclavicle -1.2424e-016 -3.18055e-015
rhumerus -78.6937 -38.6131 -11.706
rradius 15.0952
rwrist 47.6623
rhand -21.0619 -38.8079
rfingers 7.12502
rthumb 5.31459 -68.7212
lclavicle -1.2424e-016 -3.18055e-015
lhumerus -17.217 -15.2473 89.264
lradius 63.806
lwrist 26.3733
lhand -29.5555 -20.1748
lfingers 7.12502
lthumb -2.88823 9.78541
rfemur -38.3184 2.80995 24.3127
rtibia 47.0191
rfoot -11.3055 8.42028
rtoes 7.18239
lfemur 0.900043 2.54074 -21.846
ltibia 54.6584
lfoot 17.2048 10.5815
ltoes 2.59182
95
root 9.58369 15.6565 -8.86669 4.21151 -1.66182 1.38529
lowerback 3.27414 0.463083 0.31017
upperback -2.14819 0.70623 1.91477
thorax -4.07161 0.37125 1.7539
lowerneck -9.52336 -1.04309 -3.02364
upperneck 10.6932 -1.09347 1.02439
head 4.79337 -0.59423 0.734028
rclavicle 4.5472e-015 -4.77083e-015
rhumerus -76.0662 -38.8804 -16.1581
rradius 15.5925
rwrist 44.4698
rhand -21.0128 -39.0312
rfingers 7.12502
rthumb 5.36201 -68.9433
lclavicle 4.5472e-015 -4.77083e-015
lhumerus -17.8118 -16.1101 89.8527
lradius 62.6288
lwrist 26.3877
lhand -30.4331 -20.0058
lfingers 7.12502
lthumb -3.73568 9.94116
rfemur -37.1501 2.5426 24.366
rtibia 46.8362
rfoot -12.1233 8.69895
rtoes 7.06575
lfemur -1.55963 2.76542 -21.7384
ltibia 57.5417
lfoot 15.6939 8.58648
ltoes -3.67135
96
root 9.57715 15.6939 -8.62976 4.3554 -1.69144 1.08698
lowerback 3.32817 0.619957 0.636654
upperback -2.22025 0.934799 1.91343
thorax -4.17841 0.475997 1.55305
lowerneck -9.53482 -1.1937 -2.72544
upperneck 10.8359 -1.3117 0.796981
head 4.84033 -0.704356 0.599715
rclavicle 2.03009e-014 4.37326e-014
rhumerus -72.5892 -38.5599 -21.988
rradius 16.14
rwrist 40.349
rhand -21.0639 -39.0572
rfingers 7.12502
rthumb 5.31266 -68.9706
lclavicle 2.03009e-014 4.37326e-014
lhumerus -18.6803 -16.6231 90.2929
lradius 61.6116
lwrist 26.4936
lhand -30.805 -19.9172
lfingers 7.12502
lthumb -4.09488 10.0232
rfemur -36.1493 2.43641 24.7815
rtibia 46.6049
rfoot -12.8325 8.86161
rtoes 7.14681
lfemur -3.98359 3.15295 -21.306
ltibia 60.201
lfoot 13.2275 7.54208
ltoes -3.87563
97
root 9.57371 15.736 -8.38984 4.57167 -1.97999 0.58114
lowerback 3.16638 0.861302 1.28252
upperback -2.233 1.28517 1.8802
thorax -4.09322 0.631296 1.13452
lowerneck -9.62089 -1.29989 -2.51183
upperneck 11.0077 -1.47742 0.744439
head 4.90867 -0.780779 0.536299
rclavicle 2.41275e-014 1.35174e-014
rhumerus -69.1903 -38.1297 -27.6951
rradius 16.8007
rwrist 36.452
rhand -20.9024 -38.8893
rfingers 7.12502
rthumb 5.4686 -68.7987
lclavicle 2.41275e-014 1.35174e-014
lhumerus -19.683 -16.5419 90.694
lradius 60.6284
lwrist 25.9724
lhand -30.4361 -20.0007
lfingers 7.12502
lthumb -3.73859 9.94621
rfemur -35.1658 2.45186 25.4569
rtibia 46.1821
rfoot -13.384 9.1359
rtoes 6.10279
lfemur -6.2788 3.86748 -20.6796
ltibia 62.4226
lfoot 10.888 6.64665
ltoes -2.20757
98
root 9.56939 15.7857 -8.14304 4.79579 -2.34717 0.268432
lowerback 2.85572 1.12126 1.62736
upperback -2.15484 1.6372 1.86126
thorax -3.83019 0.797777 0.905345
lowerneck -9.38697 -1.38805 -2.88292
upperneck 10.7507 -1.61855 1.3108
head 4.79994 -0.828502 0.764074
rclavicle -1.52319e-014 -4.77083e-015
rhumerus -65.7348 -37.7615 -33.1671
rradius 17.622
rwrist 32.7866
rhand -20.598 -38.453
rfingers 7.12502
rthumb 5.76244 -68.3547
lclavicle -1.52319e-014 -4.77083e-015
lhumerus -20.558 -16.0988 91.1532
lradius 59.6538
lwrist 25.5199
lhand -29.6362 -19.8214
lfingers 7.12502
lthumb -2.96609 10.1377
rfemur -34.1968 2.51286 25.9176
rtibia 45.6486
rfoot -14.0585 9.22031
rtoes 3.05543
lfemur -8.54534 4.80159 -20.2401
ltibia 64.2318
lfoot 9.04718 5.50129
ltoes -4.75975
